<?xml version="1.0" encoding="utf-8"?>
<!-- Generator: Adobe Illustrator 16.0.0, SVG Export Plug-In . SVG Version: 6.00 Build 0)  -->
<!DOCTYPE svg PUBLIC "-//W3C//DTD SVG 1.1//EN" "http://www.w3.org/Graphics/SVG/1.1/DTD/svg11.dtd">
<svg version="1.1" id="Layer_1" xmlns="http://www.w3.org/2000/svg" xmlns:xlink="http://www.w3.org/1999/xlink" x="0px" y="0px"
	 width="100px" height="100px" viewBox="0 0 100 100" enable-background="new 0 0 100 100" xml:space="preserve">
<path fill="#FFFFFF" d="M90.625,26.562H62.5c-0.863,0-1.563,0.699-1.563,1.563s0.699,1.563,1.563,1.563h26.562v53.125H10.937V29.687
	h26.562c0.863,0,1.563-0.699,1.563-1.563s-0.699-1.563-1.563-1.563H9.374c-0.863,0-1.563,0.699-1.563,1.563v56.25
	c0,0.863,0.699,1.563,1.563,1.563h81.25c0.863,0,1.563-0.699,1.563-1.563v-56.25C92.187,27.261,91.487,26.562,90.625,26.562
	L90.625,26.562z"/>
<path fill="#FFFFFF" d="M45.313,17.188h9.375v15.625h-9.375V17.188z M43.75,35.938h12.5c0.863,0,1.563-0.699,1.563-1.563v-18.75
	c0-0.863-0.699-1.563-1.563-1.563h-12.5c-0.863,0-1.563,0.699-1.563,1.563v18.75C42.188,35.239,42.887,35.938,43.75,35.938z"/>
<path fill="#FFFFFF" d="M26.562,50c0-2.586,2.102-4.688,4.688-4.688s4.688,2.102,4.688,4.688s-2.102,4.688-4.688,4.688
	S26.562,52.586,26.562,50z M39.062,50c0-4.309-3.504-7.813-7.813-7.813S23.437,45.691,23.437,50c0,2.266,0.988,4.297,2.535,5.723
	c-5.145,2.094-8.785,7.137-8.785,13.027c0,0.863,0.699,1.563,1.563,1.563s1.563-0.699,1.563-1.563
	c0-6.031,4.906-10.938,10.938-10.938s10.938,4.906,10.938,10.938c0,0.863,0.699,1.563,1.563,1.563s1.563-0.699,1.563-1.563
	c0-5.891-3.641-10.935-8.785-13.027C38.075,54.297,39.063,52.266,39.062,50L39.062,50z"/>
<path fill="#FFFFFF" d="M81.25,45.312H53.125c-0.863,0-1.563,0.699-1.563,1.563s0.699,1.563,1.563,1.563H81.25
	c0.863,0,1.563-0.699,1.563-1.563S82.113,45.312,81.25,45.312z"/>
<path fill="#FFFFFF" d="M81.25,51.562H53.125c-0.863,0-1.563,0.699-1.563,1.563s0.699,1.563,1.563,1.563H81.25
	c0.863,0,1.563-0.699,1.563-1.563S82.113,51.562,81.25,51.562z"/>
<path fill="#FFFFFF" d="M81.25,57.812H53.125c-0.863,0-1.563,0.699-1.563,1.563s0.699,1.563,1.563,1.563H81.25
	c0.863,0,1.563-0.699,1.563-1.563S82.113,57.812,81.25,57.812z"/>
</svg>
