<?xml version="1.0" encoding="utf-8"?>
<!-- Generator: Adobe Illustrator 16.0.0, SVG Export Plug-In . SVG Version: 6.00 Build 0)  -->
<!DOCTYPE svg PUBLIC "-//W3C//DTD SVG 1.1//EN" "http://www.w3.org/Graphics/SVG/1.1/DTD/svg11.dtd">
<svg version="1.1" id="Layer_1" xmlns="http://www.w3.org/2000/svg" xmlns:xlink="http://www.w3.org/1999/xlink" x="0px" y="0px"
	 width="100px" height="100px" viewBox="0 0 100 100" enable-background="new 0 0 100 100" xml:space="preserve">
<path fill="#FFFFFF" d="M78.605,80.852c-0.125,0.113-0.266,0.137-0.43,0.066c-0.113-0.051-0.254-0.156-0.254-0.375l0.004-29.609
	c0-4.531-2.777-8.426-6.719-10.07c3.672-2.352,6.113-6.453,6.113-11.129c0-7.285-5.93-13.215-13.215-13.215
	c-7.285,0.004-13.211,5.93-13.211,13.219c0,4.672,2.445,8.777,6.117,11.129c-3.945,1.648-6.727,5.547-6.727,10.082v3.195
	c-0.399-0.051-0.801-0.086-1.211-0.086c-1.32,0-2.578,0.277-3.719,0.77c-0.906-2.316-2.684-4.164-4.91-5.179
	c3.047-2.063,5.055-5.551,5.055-9.496c0-6.316-5.141-11.457-11.457-11.457s-11.457,5.141-11.457,11.457
	c0,3.949,2.008,7.438,5.055,9.496c-3.277,1.5-5.563,4.8-5.563,8.636v23.191c-8.914-7.957-13.98-19.211-13.98-31.242
	c0-11.59,4.863-22.766,13.348-30.668c8.602-8.012,19.836-11.957,31.609-11.121c20.652,1.469,37.31,18.141,38.742,38.785
	C92.688,59.938,87.879,72.195,78.605,80.852z M64.105,39.617c-5.449,0-9.883-4.434-9.883-9.883s4.434-9.883,9.883-9.883
	s9.883,4.434,9.883,9.883S69.555,39.617,64.105,39.617z M55.164,63.477c0,3.355-2.73,6.09-6.09,6.09s-6.09-2.73-6.09-6.09
	s2.73-6.09,6.09-6.09C52.43,57.387,55.164,60.117,55.164,63.477z M34.039,48.269c-4.48,0-8.125-3.645-8.125-8.125
	s3.645-8.121,8.125-8.121s8.121,3.645,8.121,8.121C42.164,44.625,38.52,48.269,34.039,48.269z M53.289,5.117
	C40.578,4.215,28.457,8.48,19.172,17.129c-9.156,8.531-14.41,20.598-14.41,33.105c0,10.656,3.805,21.117,10.711,29.242
	c1.23,1.449,2.496,2.879,3.898,4.16c1.059,0.969,2.816,2.797,4.367,2.797c0.922,0,1.668-0.746,1.668-1.668V58.277
	c0-3.398,2.766-6.168,6.164-6.168h4.934c2.855,0,5.277,1.961,5.965,4.652c-1.738,1.711-2.816,4.086-2.816,6.711
	c0,2.727,1.172,5.184,3.031,6.902v0.098c-2.141,1.457-3.434,3.859-3.434,6.492v15.699c0,0.922,0.746,1.668,1.668,1.668
	s1.668-0.746,1.668-1.668V76.969c0-1.723,0.965-3.277,2.523-4.059c0.406-0.207,0.84-0.336,1.277-0.406
	c0.855,0.254,1.758,0.398,2.691,0.398c0.937,0,1.843-0.141,2.695-0.398c2.172,0.359,3.801,2.266,3.801,4.469V93.34
	c0,0.922,0.746,1.668,1.668,1.668s1.668-0.746,1.668-1.668l-0.004-16.371c0-2.676-1.387-5.102-3.504-6.527
	c1.898-1.727,3.098-4.203,3.098-6.965c0-3.547-1.973-6.641-4.879-8.25v-4.281c0-4.184,3.402-7.59,7.59-7.59h5.813
	c4.18,0,7.578,3.398,7.578,7.578v29.609c0,1.508,0.863,2.824,2.25,3.43c1.379,0.605,2.922,0.348,4.031-0.68
	c10.017-9.352,15.207-22.582,14.246-36.297C93.574,24.707,75.59,6.703,53.289,5.117L53.289,5.117z"/>
</svg>
