<?xml version="1.0" encoding="utf-8"?>
<!-- Generator: Adobe Illustrator 16.0.0, SVG Export Plug-In . SVG Version: 6.00 Build 0)  -->
<!DOCTYPE svg PUBLIC "-//W3C//DTD SVG 1.1//EN" "http://www.w3.org/Graphics/SVG/1.1/DTD/svg11.dtd">
<svg version="1.1" id="Layer_1" xmlns="http://www.w3.org/2000/svg" xmlns:xlink="http://www.w3.org/1999/xlink" x="0px" y="0px"
	 width="22.751px" height="22.75px" viewBox="0 0 22.751 22.75" enable-background="new 0 0 22.751 22.75" xml:space="preserve">
<path fill="#FFFFFF" d="M11.375,22.75C5.103,22.75,0,17.647,0,11.375C0,5.103,5.103,0,11.375,0c6.273,0,11.376,5.103,11.376,11.375
	C22.751,17.647,17.648,22.75,11.375,22.75 M11.375,1C5.654,1,1,5.654,1,11.375C1,17.096,5.654,21.75,11.375,21.75
	c5.721,0,10.376-4.654,10.376-10.375C21.751,5.654,17.096,1,11.375,1"/>
<path fill="#FFFFFF" d="M11.375,22.75c-3.745,0-6.791-5.103-6.791-11.375C4.584,5.103,7.63,0,11.375,0
	c3.744,0,6.789,5.103,6.789,11.375C18.164,17.647,15.119,22.75,11.375,22.75 M11.375,1C8.182,1,5.584,5.654,5.584,11.375
	c0,5.721,2.598,10.375,5.791,10.375c3.192,0,5.789-4.654,5.789-10.375C17.164,5.654,14.567,1,11.375,1"/>
<path fill="#FFFFFF" d="M11.375,22.75c-0.276,0-0.5-0.224-0.5-0.5V0.5c0-0.276,0.224-0.5,0.5-0.5
	c6.273,0,11.376,5.103,11.376,11.375S17.648,22.75,11.375,22.75 M11.875,1.012v20.727c5.49-0.262,9.876-4.81,9.876-10.364
	C21.751,5.822,17.365,1.274,11.875,1.012"/>
<path fill="#FFFFFF" d="M21.541,15.708H1.206c-0.208,0-0.395-0.129-0.468-0.324C0.248,14.083,0,12.734,0,11.375
	c0-1.362,0.249-2.711,0.741-4.011c0.074-0.195,0.26-0.323,0.468-0.323h20.332c0.208,0,0.395,0.129,0.468,0.323
	c0.492,1.304,0.742,2.654,0.742,4.011c0,1.358-0.25,2.707-0.742,4.01C21.936,15.579,21.749,15.708,21.541,15.708 M1.558,14.708
	H21.19c0.372-1.088,0.561-2.208,0.561-3.333s-0.188-2.245-0.562-3.334H1.56C1.188,9.127,1,10.247,1,11.375
	C1,12.501,1.187,13.621,1.558,14.708"/>
</svg>
