<?xml version="1.0" encoding="utf-8"?>
<!-- Generator: Adobe Illustrator 16.0.0, SVG Export Plug-In . SVG Version: 6.00 Build 0)  -->
<!DOCTYPE svg PUBLIC "-//W3C//DTD SVG 1.1//EN" "http://www.w3.org/Graphics/SVG/1.1/DTD/svg11.dtd">
<svg version="1.1" id="Layer_1" xmlns="http://www.w3.org/2000/svg" xmlns:xlink="http://www.w3.org/1999/xlink" x="0px" y="0px"
	 width="120px" height="120px" viewBox="0 0 120 120" enable-background="new 0 0 120 120" xml:space="preserve">
<path fill="#FFFFFF" d="M60.456,115.416c-30.808,0-55.874-25.063-55.874-55.874c0-30.808,25.066-55.874,55.874-55.874
	c30.815,0,55.879,25.066,55.879,55.874C116.335,90.353,91.271,115.416,60.456,115.416 M60.456,8.58
	c-28.103,0-50.962,22.859-50.962,50.962c0,28.101,22.859,50.962,50.962,50.962c28.1,0,50.967-22.861,50.967-50.962
	C111.423,31.439,88.556,8.58,60.456,8.58"/>
<path fill="#FFFFFF" d="M60.456,115.416c-18.396,0-33.357-25.063-33.357-55.874c0-30.808,14.961-55.874,33.357-55.874
	c18.391,0,33.349,25.066,33.349,55.874C93.805,90.353,78.847,115.416,60.456,115.416 M60.456,8.58
	c-15.683,0-28.446,22.859-28.446,50.962c0,28.101,12.763,50.962,28.446,50.962c15.681,0,28.437-22.861,28.437-50.962
	C88.893,31.439,76.137,8.58,60.456,8.58"/>
<path fill="#FFFFFF" d="M60.456,115.416c-1.357,0-2.456-1.099-2.456-2.456V6.122c0-1.355,1.099-2.456,2.456-2.456
	c30.815,0,55.879,25.066,55.879,55.874C116.335,90.347,91.271,115.416,60.456,115.416 M62.912,8.638v101.809
	c26.968-1.286,48.511-23.624,48.511-50.907C111.423,32.265,89.88,9.926,62.912,8.638"/>
<path fill="#FFFFFF" d="M110.392,80.825H10.506c-1.022,0-1.94-0.633-2.298-1.592c-2.408-6.39-3.626-13.017-3.626-19.691
	c0-6.689,1.223-13.316,3.641-19.703c0.362-0.957,1.276-1.585,2.297-1.585h99.871c1.022,0,1.938,0.633,2.298,1.585
	c2.418,6.406,3.646,13.038,3.646,19.703c0,6.67-1.228,13.297-3.646,19.695C112.329,80.192,111.414,80.825,110.392,80.825
	 M12.235,75.914h96.435c1.827-5.345,2.753-10.847,2.753-16.372c0-5.526-0.926-11.028-2.758-16.376h-96.42
	C10.417,48.5,9.494,54.002,9.494,59.542C9.494,65.073,10.413,70.575,12.235,75.914"/>
</svg>
