<?xml version="1.0" encoding="utf-8"?>
<!-- Generator: Adobe Illustrator 16.0.0, SVG Export Plug-In . SVG Version: 6.00 Build 0)  -->
<!DOCTYPE svg PUBLIC "-//W3C//DTD SVG 1.1//EN" "http://www.w3.org/Graphics/SVG/1.1/DTD/svg11.dtd">
<svg version="1.1" id="Layer_1" xmlns="http://www.w3.org/2000/svg" xmlns:xlink="http://www.w3.org/1999/xlink" x="0px" y="0px"
	 width="333.938px" height="98.502px" viewBox="0 0 333.938 98.502" enable-background="new 0 0 333.938 98.502"
	 xml:space="preserve">
<g>
	<defs>
		<rect id="SVGID_1_" width="333.938" height="98.502"/>
	</defs>
	<clipPath id="SVGID_2_">
		<use xlink:href="#SVGID_1_"  overflow="visible"/>
	</clipPath>
	<path clip-path="url(#SVGID_2_)" fill="#FFFFFF" d="M122.476,60.497v-0.924c0.85-0.402,1.721-0.658,2.613-0.765V39.913
		c-0.425-0.085-0.86-0.196-1.306-0.335c-0.446-0.138-0.882-0.292-1.307-0.462v-0.924h3.378c0.403,0,0.791-0.011,1.163-0.032
		c0.371-0.022,0.76-0.043,1.163-0.064c0.404-0.021,0.839-0.043,1.307-0.064c0.467-0.021,0.998-0.031,1.593-0.031
		c0.849,0,1.716,0.068,2.596,0.207c0.882,0.138,1.679,0.398,2.391,0.78c0.711,0.383,1.29,0.919,1.737,1.609
		c0.446,0.691,0.669,1.588,0.669,2.693c0,0.553-0.086,1.105-0.256,1.657c-0.17,0.553-0.429,1.067-0.78,1.546
		c-0.35,0.477-0.792,0.897-1.322,1.259c-0.531,0.361-1.158,0.627-1.881,0.796v0.128c0.639,0.106,1.27,0.287,1.896,0.542
		c0.627,0.253,1.184,0.599,1.674,1.035c0.489,0.436,0.886,0.972,1.195,1.609c0.307,0.639,0.462,1.401,0.462,2.295
		c0,1.146-0.255,2.136-0.765,2.963c-0.51,0.829-1.174,1.51-1.991,2.04c-0.819,0.53-1.748,0.918-2.789,1.163
		c-1.041,0.243-2.093,0.366-3.155,0.366c-0.743,0-1.583-0.032-2.517-0.095c-0.935-0.065-1.838-0.097-2.708-0.097H122.476z
		 M129.55,48.325c0.362,0,0.792-0.017,1.291-0.048c0.498-0.032,0.909-0.068,1.227-0.111c0.977-0.34,1.778-0.887,2.405-1.641
		c0.627-0.755,0.941-1.641,0.941-2.661c0-1.402-0.42-2.454-1.259-3.154c-0.839-0.702-1.959-1.052-3.361-1.052
		c-0.66,0-1.223,0.01-1.69,0.031c-0.467,0.022-0.849,0.054-1.146,0.096v8.54H129.55z M130.984,59.031
		c0.766,0,1.482-0.116,2.151-0.351c0.669-0.233,1.244-0.557,1.721-0.971c0.478-0.415,0.856-0.913,1.132-1.498
		c0.275-0.584,0.414-1.217,0.414-1.896c0-0.849-0.165-1.555-0.494-2.119c-0.329-0.563-0.777-1.009-1.338-1.339
		c-0.564-0.329-1.211-0.557-1.944-0.684c-0.733-0.128-1.494-0.192-2.279-0.192h-2.389v8.795c0.297,0.085,0.652,0.149,1.067,0.192
		C129.439,59.011,130.092,59.031,130.984,59.031"/>
	<path clip-path="url(#SVGID_2_)" fill="#FFFFFF" d="M154.214,56.322c0,0.469,0.01,0.871,0.032,1.211
		c0.021,0.341,0.043,0.701,0.064,1.084l2.198,0.318v0.669c-0.531,0.277-1.121,0.522-1.768,0.734
		c-0.649,0.211-1.27,0.371-1.864,0.478h-0.797c-0.212-0.488-0.339-1.024-0.382-1.609c-0.043-0.584-0.075-1.228-0.096-1.929h-0.159
		c-0.085,0.427-0.25,0.855-0.494,1.291c-0.244,0.437-0.563,0.823-0.956,1.163c-0.394,0.34-0.856,0.616-1.386,0.828
		c-0.531,0.212-1.137,0.32-1.816,0.32c-1.296,0-2.354-0.395-3.171-1.181c-0.819-0.785-1.227-1.815-1.227-3.091
		c0-0.977,0.196-1.778,0.589-2.405c0.394-0.626,0.973-1.12,1.737-1.482c0.765-0.361,1.709-0.622,2.836-0.78
		c1.126-0.159,2.432-0.28,3.919-0.367c0.085-0.912,0.112-1.735,0.08-2.47c-0.031-0.732-0.149-1.358-0.35-1.88
		c-0.202-0.519-0.499-0.924-0.893-1.211c-0.393-0.286-0.908-0.429-1.545-0.429c-0.298,0-0.633,0.015-1.004,0.048
		c-0.372,0.032-0.738,0.123-1.099,0.27l-1.497,3.824h-0.83c-0.212-0.637-0.397-1.296-0.557-1.975
		c-0.159-0.68-0.261-1.349-0.303-2.008c0.808-0.488,1.705-0.871,2.693-1.148c0.988-0.275,2.087-0.414,3.298-0.414
		c1.083,0,1.95,0.155,2.598,0.462c0.647,0.309,1.142,0.707,1.48,1.196c0.34,0.488,0.564,1.03,0.67,1.625
		c0.106,0.595,0.16,1.189,0.16,1.784c0,1.274-0.027,2.502-0.081,3.68C154.241,54.107,154.214,55.239,154.214,56.322 M148.064,58.903
		c0.531,0,0.998-0.104,1.402-0.317c0.404-0.212,0.744-0.467,1.02-0.766c0.275-0.297,0.499-0.6,0.669-0.907
		c0.17-0.309,0.287-0.569,0.35-0.781v-3.346c-1.231,0-2.241,0.063-3.027,0.19c-0.786,0.128-1.402,0.33-1.848,0.606
		c-0.446,0.275-0.754,0.621-0.923,1.034c-0.171,0.414-0.255,0.889-0.255,1.42c0,0.912,0.233,1.619,0.7,2.117
		C146.619,58.654,147.256,58.903,148.064,58.903"/>
	<path clip-path="url(#SVGID_2_)" fill="#FFFFFF" d="M165.016,46.955c-0.234,0.127-0.525,0.388-0.877,0.781
		c-0.35,0.393-0.663,0.972-0.939,1.736v9.464c0.424,0.043,0.849,0.123,1.275,0.24c0.424,0.116,0.849,0.292,1.274,0.524v0.797h-7.52
		V59.7c0.383-0.212,0.743-0.371,1.083-0.477c0.34-0.107,0.68-0.203,1.02-0.288V46.413l-2.103-0.255V45.33
		c0.68-0.298,1.38-0.536,2.103-0.717c0.721-0.18,1.413-0.324,2.072-0.43h0.796v3.377h0.128c0.19-0.424,0.461-0.849,0.811-1.274
		c0.352-0.425,0.755-0.808,1.212-1.147c0.456-0.34,0.956-0.601,1.497-0.781c0.542-0.18,1.1-0.239,1.674-0.175
		c0.147,0.276,0.28,0.579,0.396,0.908c0.118,0.329,0.229,0.675,0.335,1.035v0.829H165.016z"/>
	<path clip-path="url(#SVGID_2_)" fill="#FFFFFF" d="M169.955,45.366c0.808-0.527,1.656-0.9,2.55-1.12v-2.708
		c0.275-0.213,0.599-0.419,0.972-0.622c0.372-0.201,0.738-0.376,1.099-0.526h0.798v4.175h4.778v1.656h-4.778v9.196
		c0,1.268,0.2,2.167,0.604,2.694c0.404,0.528,1.009,0.792,1.817,0.792c0.382,0,0.859-0.024,1.433-0.079
		c0.574-0.053,1.063-0.153,1.466-0.303L180.918,59c-0.171,0.19-0.41,0.393-0.718,0.604c-0.308,0.213-0.658,0.415-1.052,0.606
		c-0.393,0.19-0.824,0.35-1.291,0.478s-0.945,0.192-1.434,0.192c-1.275,0-2.246-0.361-2.915-1.079
		c-0.669-0.719-1.004-1.882-1.004-3.491v-10.09h-2.55V45.366z"/>
	<path clip-path="url(#SVGID_2_)" fill="#FFFFFF" d="M189.681,60.497h-7.075V59.7c0.702-0.34,1.401-0.595,2.103-0.765v-20.17
		l-2.421-0.255v-0.829c0.551-0.255,1.243-0.478,2.072-0.669c0.828-0.192,1.634-0.351,2.421-0.478h0.796v22.401
		c0.702,0.17,1.403,0.425,2.104,0.765V60.497z"/>
	<path clip-path="url(#SVGID_2_)" fill="#FFFFFF" d="M203.774,58.268c-0.171,0.36-0.436,0.701-0.797,1.019
		c-0.361,0.319-0.775,0.596-1.242,0.828c-0.468,0.235-0.979,0.42-1.529,0.558c-0.553,0.14-1.116,0.208-1.689,0.208
		c-1.254,0-2.357-0.196-3.313-0.59c-0.956-0.393-1.752-0.956-2.391-1.688c-0.638-0.733-1.121-1.61-1.449-2.629
		c-0.329-1.021-0.494-2.167-0.494-3.442c0-2.718,0.626-4.79,1.88-6.214c1.254-1.422,3.028-2.134,5.322-2.134
		c0.742,0,1.476,0.101,2.197,0.302c0.724,0.203,1.365,0.538,1.93,1.004c0.562,0.468,1.019,1.089,1.368,1.865
		c0.353,0.775,0.526,1.736,0.526,2.883c0,0.362-0.015,0.729-0.047,1.1c-0.033,0.371-0.091,0.77-0.176,1.194h-9.942
		c0,0.894,0.112,1.728,0.335,2.501c0.224,0.777,0.558,1.451,1.003,2.025c0.447,0.572,1.009,1.024,1.69,1.354
		c0.679,0.329,1.475,0.493,2.389,0.493c0.744,0,1.498-0.104,2.263-0.318c0.766-0.212,1.339-0.487,1.722-0.827L203.774,58.268z
		 M197.943,45.584c-1.212,0-2.136,0.409-2.771,1.227c-0.638,0.818-1.021,2.257-1.148,4.316h7.012c0.02-0.19,0.036-0.376,0.047-0.558
		c0.01-0.179,0.016-0.354,0.016-0.525c0-1.358-0.255-2.442-0.765-3.25C199.824,45.987,199.027,45.584,197.943,45.584"/>
	<path clip-path="url(#SVGID_2_)" fill="#FFFFFF" d="M205.405,45.366c0.807-0.527,1.656-0.9,2.549-1.12v-2.708
		c0.275-0.213,0.6-0.419,0.972-0.622c0.372-0.201,0.738-0.376,1.099-0.526h0.798v4.175h4.779v1.656h-4.779v9.196
		c0,1.268,0.201,2.167,0.604,2.694c0.404,0.528,1.009,0.792,1.817,0.792c0.382,0,0.859-0.024,1.434-0.079
		c0.574-0.053,1.063-0.153,1.466-0.303L216.367,59c-0.17,0.19-0.409,0.393-0.718,0.604c-0.308,0.213-0.658,0.415-1.052,0.606
		c-0.393,0.19-0.824,0.35-1.291,0.478c-0.466,0.128-0.945,0.192-1.433,0.192c-1.275,0-2.246-0.361-2.916-1.079
		c-0.669-0.719-1.004-1.882-1.004-3.491v-10.09h-2.549V45.366z"/>
	<path clip-path="url(#SVGID_2_)" fill="#FFFFFF" d="M217.227,45.366c0.808-0.527,1.656-0.9,2.55-1.12v-2.708
		c0.275-0.213,0.6-0.419,0.972-0.622c0.372-0.201,0.738-0.376,1.099-0.526h0.798v4.175h4.778v1.656h-4.778v9.196
		c0,1.268,0.2,2.167,0.604,2.694c0.404,0.528,1.009,0.792,1.817,0.792c0.382,0,0.859-0.024,1.433-0.079
		c0.574-0.053,1.063-0.153,1.466-0.303L228.189,59c-0.171,0.19-0.41,0.393-0.718,0.604c-0.308,0.213-0.658,0.415-1.052,0.606
		c-0.393,0.19-0.824,0.35-1.291,0.478s-0.944,0.192-1.433,0.192c-1.276,0-2.247-0.361-2.916-1.079
		c-0.669-0.719-1.004-1.882-1.004-3.491v-10.09h-2.55V45.366z"/>
	<path clip-path="url(#SVGID_2_)" fill="#FFFFFF" d="M267.098,39.913c-0.444-0.063-0.892-0.165-1.338-0.303
		c-0.445-0.138-0.914-0.302-1.401-0.494v-0.924h7.137v0.924c-0.721,0.318-1.487,0.585-2.293,0.797l-5.322,20.584l-1.976,0.384
		l-5.13-17.336l-5.034,16.953l-1.945,0.384l-5.639-20.968c-0.426-0.106-0.84-0.224-1.244-0.351
		c-0.404-0.128-0.796-0.276-1.179-0.446v-0.924h8.286v0.924c-0.404,0.149-0.818,0.292-1.243,0.431
		c-0.425,0.137-0.882,0.26-1.37,0.366l3.154,12.842l0.7,4.142h0.064l1.115-4.206l4.303-14.499h1.083l4.62,14.499l0.923,4.143h0.065
		l0.731-4.207L267.098,39.913z"/>
	<path clip-path="url(#SVGID_2_)" fill="#FFFFFF" d="M282.974,58.268c-0.171,0.36-0.436,0.701-0.797,1.019
		c-0.361,0.319-0.775,0.596-1.243,0.828c-0.468,0.235-0.978,0.42-1.528,0.558c-0.553,0.14-1.117,0.208-1.689,0.208
		c-1.254,0-2.358-0.196-3.313-0.59c-0.956-0.393-1.753-0.956-2.391-1.688c-0.638-0.733-1.121-1.61-1.449-2.629
		c-0.329-1.021-0.494-2.167-0.494-3.442c0-2.718,0.626-4.79,1.88-6.214c1.253-1.422,3.026-2.134,5.322-2.134
		c0.742,0,1.476,0.101,2.197,0.302c0.724,0.203,1.364,0.538,1.929,1.004c0.563,0.468,1.02,1.089,1.369,1.865
		c0.352,0.775,0.526,1.736,0.526,2.883c0,0.362-0.015,0.729-0.047,1.1c-0.033,0.371-0.091,0.77-0.176,1.194h-9.942
		c0,0.894,0.112,1.728,0.334,2.501c0.225,0.777,0.559,1.451,1.004,2.025c0.447,0.572,1.009,1.024,1.689,1.354
		c0.68,0.329,1.476,0.493,2.39,0.493c0.744,0,1.498-0.104,2.262-0.318c0.767-0.212,1.34-0.487,1.723-0.827L282.974,58.268z
		 M277.143,45.584c-1.212,0-2.136,0.409-2.772,1.227c-0.637,0.818-1.021,2.257-1.148,4.316h7.012
		c0.021-0.19,0.037-0.376,0.048-0.558c0.01-0.179,0.015-0.354,0.015-0.525c0-1.358-0.254-2.442-0.764-3.25
		S278.225,45.584,277.143,45.584"/>
	<path clip-path="url(#SVGID_2_)" fill="#FFFFFF" d="M293.17,60.498h-7.073v-0.797c0.317-0.17,0.646-0.314,0.987-0.431
		c0.339-0.116,0.711-0.228,1.114-0.335V46.413l-2.102-0.255V45.33c0.614-0.256,1.284-0.479,2.008-0.67
		c0.721-0.191,1.443-0.35,2.166-0.478h0.797v14.754c0.424,0.107,0.807,0.219,1.146,0.335c0.341,0.116,0.658,0.261,0.956,0.431
		V60.498z M287.594,39.147c0-0.573,0.187-1.03,0.559-1.369c0.371-0.34,0.865-0.511,1.48-0.511c0.616,0,1.105,0.171,1.467,0.511
		c0.36,0.339,0.542,0.796,0.542,1.369c0,0.574-0.182,1.025-0.542,1.354c-0.361,0.331-0.851,0.495-1.467,0.495
		c-0.615,0-1.109-0.164-1.48-0.495C287.78,40.172,287.594,39.721,287.594,39.147"/>
	<path clip-path="url(#SVGID_2_)" fill="#FFFFFF" d="M302.253,44.182c1.146,0,2.113,0.111,2.898,0.335
		c0.786,0.223,1.444,0.568,1.977,1.035c1.254-0.848,2.559-1.466,3.919-1.847c0.17,0.233,0.293,0.52,0.367,0.86
		s0.11,0.658,0.11,0.956l-0.414,0.765h-3.346c0.532,0.764,0.797,1.774,0.797,3.027c0,1.529-0.537,2.772-1.609,3.728
		s-2.64,1.434-4.699,1.434c-0.404,0-0.734-0.011-0.989-0.032c-0.255-0.021-0.542-0.053-0.859-0.096
		c-0.106,0.192-0.229,0.404-0.366,0.638c-0.14,0.234-0.207,0.478-0.207,0.732c0,0.426,0.243,0.76,0.731,1.004
		c0.489,0.245,1.101,0.462,1.833,0.654c0.733,0.19,1.529,0.387,2.391,0.589c0.859,0.203,1.662,0.478,2.404,0.828
		c0.744,0.351,1.365,0.808,1.864,1.371c0.499,0.563,0.76,1.291,0.782,2.183c0.02,0.764-0.155,1.454-0.526,2.071
		c-0.372,0.616-0.887,1.131-1.546,1.545c-0.659,0.415-1.45,0.734-2.374,0.956c-0.924,0.223-1.938,0.334-3.043,0.334
		c-2.315,0-4.063-0.393-5.242-1.177c-1.179-0.787-1.768-1.775-1.768-2.966c0-0.572,0.09-1.071,0.27-1.496
		c0.182-0.427,0.442-0.797,0.781-1.115c0.339-0.32,0.766-0.601,1.275-0.845s1.094-0.473,1.753-0.686
		c-0.468-0.212-0.856-0.505-1.163-0.877c-0.31-0.371-0.463-0.822-0.463-1.354c0-0.487,0.208-0.973,0.622-1.449
		c0.414-0.479,0.833-0.856,1.259-1.131c-1.212-0.32-2.141-0.926-2.789-1.818c-0.649-0.891-0.972-1.9-0.972-3.026
		c0-0.723,0.139-1.397,0.414-2.024c0.275-0.626,0.681-1.173,1.211-1.641c0.53-0.467,1.189-0.828,1.975-1.083
		C300.298,44.31,301.212,44.182,302.253,44.182 M306.968,63.079c0-0.682-0.228-1.223-0.685-1.625
		c-0.457-0.404-1.025-0.734-1.704-0.989c-0.681-0.255-1.413-0.466-2.199-0.636c-0.787-0.17-1.52-0.362-2.199-0.575
		c-0.807,0.49-1.339,1.004-1.593,1.546c-0.255,0.542-0.382,1.1-0.382,1.673c0,1.126,0.401,1.97,1.211,2.533
		c0.806,0.563,1.974,0.845,3.505,0.845c0.786,0,1.438-0.075,1.96-0.224c0.52-0.148,0.934-0.345,1.243-0.588
		c0.306-0.246,0.524-0.538,0.651-0.877C306.904,63.822,306.968,63.46,306.968,63.079 M298.779,49.313
		c0,0.51,0.059,0.993,0.175,1.449c0.116,0.457,0.308,0.856,0.573,1.196c0.266,0.339,0.621,0.611,1.067,0.812
		c0.447,0.202,0.998,0.304,1.658,0.304c1.23,0,2.113-0.362,2.644-1.084c0.531-0.723,0.797-1.614,0.797-2.676
		c0-1.147-0.261-2.056-0.779-2.725c-0.522-0.67-1.408-1.004-2.661-1.004c-1.297,0-2.2,0.325-2.709,0.972
		C299.034,47.205,298.779,48.124,298.779,49.313"/>
	<path clip-path="url(#SVGID_2_)" fill="#FFFFFF" d="M319.522,60.497h-7.073V59.7c0.7-0.34,1.401-0.595,2.102-0.765v-20.17
		l-2.421-0.255v-0.829c0.552-0.255,1.243-0.478,2.072-0.669c0.828-0.192,1.634-0.351,2.421-0.478h0.796v22.401
		c0.702,0.17,1.403,0.425,2.104,0.765V60.497z"/>
	<path clip-path="url(#SVGID_2_)" fill="#FFFFFF" d="M333.618,58.268c-0.171,0.36-0.436,0.701-0.797,1.019
		c-0.361,0.319-0.775,0.596-1.243,0.828c-0.467,0.235-0.978,0.42-1.528,0.558c-0.554,0.14-1.116,0.208-1.689,0.208
		c-1.254,0-2.357-0.196-3.313-0.59c-0.956-0.393-1.752-0.956-2.391-1.688c-0.638-0.733-1.121-1.61-1.449-2.629
		c-0.329-1.021-0.494-2.167-0.494-3.442c0-2.718,0.626-4.79,1.88-6.214c1.254-1.422,3.027-2.134,5.322-2.134
		c0.742,0,1.476,0.101,2.197,0.302c0.724,0.203,1.365,0.538,1.93,1.004c0.562,0.468,1.019,1.089,1.368,1.865
		c0.353,0.775,0.526,1.736,0.526,2.883c0,0.362-0.015,0.729-0.047,1.1c-0.033,0.371-0.091,0.77-0.176,1.194h-9.942
		c0,0.894,0.112,1.728,0.335,2.501c0.224,0.777,0.558,1.451,1.003,2.025c0.447,0.572,1.009,1.024,1.69,1.354
		c0.679,0.329,1.475,0.493,2.389,0.493c0.744,0,1.498-0.104,2.262-0.318c0.767-0.212,1.34-0.487,1.723-0.827L333.618,58.268z
		 M327.786,45.584c-1.211,0-2.135,0.409-2.771,1.227c-0.638,0.818-1.021,2.257-1.148,4.316h7.012c0.02-0.19,0.036-0.376,0.047-0.558
		c0.01-0.179,0.016-0.354,0.016-0.525c0-1.358-0.255-2.442-0.765-3.25C329.668,45.987,328.87,45.584,327.786,45.584"/>
	<path clip-path="url(#SVGID_2_)" fill="#C22032" d="M240.238,57.813c-0.222-0.149-0.504-0.332-0.843-0.55
		c-0.341-0.218-0.712-0.524-1.116-0.916c-0.148,0.202-0.335,0.4-0.558,0.597c-0.224,0.197-0.486,0.374-0.788,0.535
		c-0.303,0.159-0.64,0.286-1.012,0.381c-0.372,0.096-0.775,0.144-1.211,0.144c-0.563,0-1.072-0.085-1.529-0.255
		s-0.845-0.397-1.163-0.685c-0.319-0.287-0.566-0.616-0.742-0.988c-0.174-0.372-0.262-0.76-0.262-1.163
		c0-0.52,0.095-0.99,0.286-1.41c0.19-0.42,0.42-0.785,0.685-1.1c0.267-0.313,0.542-0.578,0.829-0.796
		c0.287-0.217,0.526-0.396,0.717-0.534c-0.308-0.34-0.567-0.738-0.779-1.195c-0.214-0.456-0.319-0.882-0.319-1.274
		c0-0.266,0.052-0.529,0.159-0.789c0.105-0.26,0.263-0.489,0.471-0.685c0.206-0.196,0.461-0.357,0.764-0.478
		c0.304-0.123,0.646-0.183,1.028-0.183c0.701,0,1.266,0.15,1.696,0.453c0.43,0.303,0.645,0.741,0.645,1.315
		c0,0.35-0.06,0.677-0.182,0.98c-0.123,0.303-0.28,0.581-0.471,0.836c-0.19,0.256-0.406,0.489-0.646,0.702s-0.475,0.409-0.709,0.59
		c0.435,0.542,0.94,1.099,1.514,1.674c0.573,0.572,1.18,1.146,1.816,1.719c0.085-0.116,0.191-0.312,0.319-0.589
		c0.127-0.276,0.247-0.601,0.357-0.972c0.112-0.371,0.202-0.778,0.272-1.22c0.067-0.439,0.087-0.878,0.055-1.313
		c-0.319-0.064-0.632-0.191-0.94-0.382v-0.414h3.233v0.414c-0.286,0.18-0.636,0.307-1.05,0.382
		c-0.096,0.627-0.218,1.194-0.367,1.705c-0.148,0.509-0.302,0.959-0.461,1.346c-0.16,0.388-0.313,0.717-0.456,0.988
		c-0.142,0.271-0.256,0.47-0.341,0.597c0.403,0.329,0.798,0.635,1.187,0.916c0.389,0.283,0.82,0.561,1.298,0.837l0.877,0.383v0.398
		H240.238z M237.737,55.853c-0.317-0.287-0.666-0.623-1.044-1.011c-0.377-0.389-0.74-0.783-1.09-1.188
		c-0.351-0.403-0.675-0.791-0.972-1.163c-0.299-0.372-0.532-0.679-0.702-0.925c-0.468,0.447-0.806,0.88-1.012,1.299
		c-0.207,0.42-0.311,0.911-0.311,1.474c0,0.404,0.067,0.778,0.201,1.124c0.133,0.346,0.316,0.645,0.552,0.9
		c0.236,0.255,0.52,0.453,0.852,0.597c0.329,0.145,0.688,0.217,1.072,0.217c0.482,0,0.932-0.11,1.348-0.327
		C237.049,56.632,237.416,56.299,237.737,55.853 M233.627,48.543c0,0.189,0.037,0.393,0.111,0.608
		c0.075,0.216,0.173,0.43,0.295,0.64c0.121,0.211,0.255,0.416,0.399,0.616c0.143,0.2,0.284,0.379,0.422,0.537
		c0.382-0.316,0.693-0.681,0.931-1.097c0.239-0.416,0.332-0.908,0.279-1.478c-0.021-0.337-0.127-0.621-0.318-0.853
		c-0.19-0.232-0.493-0.348-0.907-0.348c-0.233,0-0.43,0.04-0.582,0.119c-0.154,0.079-0.278,0.185-0.374,0.317
		c-0.097,0.131-0.162,0.278-0.2,0.442C233.646,48.209,233.627,48.375,233.627,48.543"/>
	<path clip-path="url(#SVGID_2_)" fill="#FFFFFF" d="M126.53,86.751h-4.884l0.131-0.629c0.564-0.23,1.128-0.404,1.692-0.521
		l8.573-14.305h0.565l2.454,14.305c0.259,0.058,0.523,0.127,0.791,0.207c0.27,0.079,0.511,0.184,0.727,0.313l-0.108,0.629h-5.513
		l0.108-0.629c0.652-0.246,1.288-0.42,1.912-0.521l-0.653-3.974h-5.1l-2.323,3.974c0.623,0.086,1.202,0.26,1.735,0.521
		L126.53,86.751z M127.854,80.5h4.297l-0.693-4.602l-0.044-1.867h-0.043l-0.87,1.909L127.854,80.5z"/>
	<path clip-path="url(#SVGID_2_)" fill="#FFFFFF" d="M146.391,71.947l-1.541-0.194v-0.542c0.201-0.087,0.437-0.174,0.706-0.262
		c0.267-0.087,0.549-0.17,0.846-0.248c0.297-0.08,0.589-0.146,0.88-0.196c0.288-0.049,0.548-0.075,0.779-0.075l0.434,0.238
		l-2.995,14.87h1.584v0.563c-0.288,0.231-0.64,0.42-1.051,0.564c-0.413,0.144-0.814,0.217-1.206,0.217
		c-0.42,0-0.727-0.094-0.922-0.283c-0.196-0.186-0.293-0.405-0.293-0.65c0-0.289,0.021-0.569,0.066-0.846
		c0.042-0.276,0.1-0.579,0.174-0.912L146.391,71.947z"/>
	<path clip-path="url(#SVGID_2_)" fill="#FFFFFF" d="M157.133,84.821c-0.129,0.272-0.317,0.543-0.563,0.803
		c-0.246,0.258-0.536,0.493-0.869,0.703s-0.708,0.378-1.128,0.5c-0.419,0.123-0.869,0.185-1.346,0.185
		c-1.202,0-2.124-0.343-2.768-1.031c-0.645-0.688-0.964-1.64-0.964-2.854c0-1.028,0.143-1.997,0.431-2.908
		c0.291-0.912,0.696-1.709,1.217-2.39c0.522-0.677,1.153-1.214,1.9-1.604c0.744-0.392,1.573-0.587,2.484-0.587
		c0.695,0,1.293,0.179,1.791,0.532c0.5,0.354,0.748,0.88,0.748,1.572c0,1.029-0.509,1.838-1.53,2.432
		c-1.02,0.594-2.664,0.979-4.937,1.151c-0.057,0.246-0.098,0.486-0.119,0.716c-0.022,0.232-0.033,0.456-0.033,0.672
		c0,0.869,0.22,1.579,0.663,2.129c0.441,0.549,1.088,0.824,1.941,0.824c0.277,0,0.547-0.042,0.815-0.129
		c0.266-0.087,0.521-0.197,0.759-0.327c0.239-0.129,0.456-0.266,0.652-0.413c0.195-0.144,0.365-0.272,0.509-0.39L157.133,84.821z
		 M154.855,76.594c-0.623,0.014-1.202,0.304-1.736,0.869c-0.536,0.564-0.993,1.534-1.368,2.906c1.404-0.043,2.496-0.282,3.278-0.718
		c0.78-0.436,1.172-1.041,1.172-1.813c0-0.301-0.091-0.579-0.272-0.837C155.748,76.744,155.389,76.607,154.855,76.594"/>
	<path clip-path="url(#SVGID_2_)" fill="#FFFFFF" d="M164.557,75.638c0.695,0,1.263,0.088,1.704,0.262
		c0.44,0.173,0.784,0.361,1.03,0.563c0.131-0.113,0.306-0.229,0.522-0.348c0.217-0.114,0.449-0.222,0.694-0.324
		c0.245-0.101,0.498-0.194,0.76-0.281c0.261-0.087,0.506-0.168,0.736-0.239c0.045,0.071,0.08,0.18,0.11,0.326
		c0.028,0.144,0.039,0.304,0.032,0.477c-0.008,0.174-0.035,0.352-0.087,0.533c-0.052,0.179-0.127,0.342-0.228,0.486l-2.235-0.149
		c0.043,0.128,0.087,0.276,0.13,0.442c0.044,0.167,0.064,0.352,0.064,0.556c0,0.579-0.119,1.112-0.357,1.604
		c-0.239,0.492-0.569,0.916-0.987,1.271c-0.42,0.354-0.908,0.633-1.465,0.837c-0.558,0.201-1.148,0.302-1.771,0.302
		c-0.245,0-0.444-0.004-0.596-0.01c-0.152-0.008-0.322-0.034-0.51-0.077c-0.129,0.145-0.307,0.315-0.533,0.511
		c-0.224,0.195-0.336,0.409-0.336,0.642c0,0.246,0.161,0.434,0.479,0.563c0.318,0.13,0.719,0.25,1.204,0.359
		c0.486,0.107,1.009,0.224,1.572,0.347c0.567,0.123,1.09,0.288,1.576,0.498c0.485,0.21,0.885,0.482,1.204,0.815
		c0.317,0.332,0.476,0.774,0.476,1.323c0,0.682-0.189,1.291-0.574,1.834c-0.384,0.542-0.891,1.008-1.519,1.392
		c-0.63,0.38-1.346,0.677-2.148,0.887c-0.804,0.21-1.617,0.317-2.441,0.317c-0.668,0-1.239-0.071-1.715-0.206
		c-0.48-0.139-0.869-0.327-1.173-0.567c-0.305-0.237-0.527-0.508-0.674-0.813c-0.144-0.304-0.216-0.621-0.216-0.954
		c0-0.405,0.091-0.783,0.271-1.13c0.18-0.349,0.422-0.677,0.727-0.988c0.303-0.31,0.651-0.595,1.041-0.856
		c0.392-0.261,0.797-0.507,1.217-0.736c-0.219-0.117-0.394-0.272-0.532-0.468c-0.138-0.196-0.206-0.418-0.206-0.662
		c0-0.218,0.072-0.445,0.217-0.684c0.143-0.24,0.315-0.467,0.51-0.684c0.195-0.218,0.39-0.406,0.585-0.565
		c0.196-0.159,0.343-0.274,0.446-0.347c-0.174-0.042-0.353-0.124-0.533-0.24c-0.18-0.114-0.349-0.266-0.508-0.456
		c-0.161-0.186-0.29-0.404-0.393-0.649c-0.101-0.246-0.15-0.522-0.15-0.824c0-0.565,0.119-1.086,0.358-1.563
		c0.237-0.476,0.567-0.886,0.985-1.227c0.42-0.339,0.906-0.607,1.458-0.803C163.327,75.736,163.92,75.638,164.557,75.638
		 M162.063,90.398c0.447,0,0.892-0.064,1.333-0.194c0.443-0.129,0.84-0.313,1.195-0.551c0.355-0.237,0.643-0.532,0.867-0.886
		c0.225-0.353,0.337-0.752,0.337-1.197c0-0.434-0.178-0.769-0.532-1.005c-0.354-0.238-0.784-0.429-1.29-0.573
		c-0.507-0.146-1.032-0.264-1.575-0.358s-1.009-0.207-1.4-0.337c-0.679,0.49-1.146,1.001-1.4,1.535
		c-0.253,0.532-0.371,1.03-0.359,1.49c-0.012,0.648,0.236,1.158,0.75,1.523C160.501,90.215,161.193,90.398,162.063,90.398
		 M164.383,76.507c-0.42,0-0.791,0.078-1.117,0.237c-0.326,0.161-0.605,0.373-0.835,0.641c-0.234,0.269-0.407,0.582-0.522,0.945
		c-0.117,0.363-0.173,0.746-0.173,1.151c0,0.548,0.177,0.954,0.531,1.214c0.354,0.261,0.733,0.39,1.138,0.39
		c0.435,0,0.808-0.074,1.12-0.226c0.311-0.153,0.57-0.359,0.78-0.62c0.21-0.26,0.366-0.557,0.469-0.889
		c0.099-0.333,0.15-0.682,0.15-1.041c0-0.536-0.128-0.972-0.38-1.305S164.904,76.507,164.383,76.507"/>
	<path clip-path="url(#SVGID_2_)" fill="#FFFFFF" d="M176.625,82.497c-0.19,0.522-0.422,1.049-0.706,1.583
		c-0.283,0.537-0.607,1.023-0.977,1.457c-0.367,0.433-0.776,0.788-1.227,1.063s-0.926,0.413-1.433,0.413
		c-1.506,0-2.258-1.093-2.258-3.277c0-1.013,0.145-2.001,0.436-2.964c0.29-0.961,0.71-1.82,1.258-2.573
		c0.549-0.75,1.219-1.355,2.007-1.812c0.789-0.455,1.685-0.684,2.683-0.684c0.359,0,0.65,0.032,0.866,0.099
		c0.22,0.064,0.48,0.162,0.782,0.293c0.579-0.305,1.188-0.456,1.824-0.456l-1.953,9.898h1.583v0.551
		c-0.288,0.235-0.635,0.427-1.041,0.572c-0.407,0.149-0.802,0.222-1.195,0.222c-0.42,0-0.719-0.091-0.897-0.272
		c-0.184-0.18-0.272-0.371-0.272-0.574c0-0.261,0.049-0.687,0.151-1.28c0.101-0.594,0.253-1.347,0.456-2.258H176.625z
		 M173.194,85.666c0.393,0,0.782-0.185,1.173-0.554c0.392-0.368,0.761-0.813,1.107-1.333c0.346-0.519,0.658-1.059,0.934-1.624
		c0.272-0.561,0.491-1.032,0.65-1.407l0.696-3.701c-0.205-0.144-0.4-0.242-0.588-0.303c-0.189-0.057-0.448-0.087-0.78-0.087
		c-0.666,0-1.27,0.208-1.812,0.619c-0.543,0.411-1.008,0.942-1.392,1.59c-0.384,0.651-0.68,1.371-0.89,2.166
		c-0.21,0.793-0.314,1.573-0.314,2.338c0,0.735,0.089,1.305,0.272,1.7C172.431,85.468,172.748,85.666,173.194,85.666"/>
	<path clip-path="url(#SVGID_2_)" fill="#FFFFFF" d="M184.481,71.947l-1.541-0.194v-0.542c0.201-0.087,0.438-0.174,0.706-0.262
		c0.268-0.087,0.55-0.17,0.847-0.248c0.297-0.08,0.589-0.146,0.88-0.196c0.288-0.049,0.548-0.075,0.779-0.075l0.434,0.238
		l-2.995,14.87h1.584v0.563c-0.289,0.231-0.64,0.42-1.051,0.564c-0.413,0.144-0.814,0.217-1.206,0.217
		c-0.42,0-0.728-0.094-0.922-0.283c-0.196-0.186-0.293-0.405-0.293-0.65c0-0.289,0.021-0.569,0.065-0.846
		c0.042-0.276,0.101-0.579,0.175-0.912L184.481,71.947z"/>
	<path clip-path="url(#SVGID_2_)" fill="#FFFFFF" d="M199.521,82.497c-0.189,0.522-0.422,1.049-0.706,1.583
		c-0.282,0.537-0.607,1.023-0.976,1.457c-0.368,0.433-0.777,0.788-1.228,1.063c-0.449,0.274-0.926,0.413-1.432,0.413
		c-1.505,0-2.259-1.093-2.259-3.277c0-1.013,0.146-2.001,0.436-2.964c0.29-0.961,0.71-1.82,1.258-2.573
		c0.55-0.75,1.219-1.355,2.008-1.812c0.788-0.455,1.684-0.684,2.683-0.684c0.359,0,0.649,0.032,0.865,0.099
		c0.22,0.064,0.48,0.162,0.782,0.293c0.579-0.305,1.188-0.456,1.824-0.456l-1.953,9.898h1.583v0.551
		c-0.288,0.235-0.635,0.427-1.04,0.572c-0.407,0.149-0.803,0.222-1.196,0.222c-0.419,0-0.718-0.091-0.897-0.272
		c-0.184-0.18-0.272-0.371-0.272-0.574c0-0.261,0.05-0.687,0.151-1.28s0.254-1.347,0.456-2.258H199.521z M196.091,85.666
		c0.394,0,0.782-0.185,1.173-0.554c0.392-0.368,0.762-0.813,1.108-1.333c0.345-0.519,0.657-1.059,0.934-1.624
		c0.272-0.561,0.49-1.032,0.649-1.407l0.696-3.701c-0.204-0.144-0.399-0.242-0.587-0.303c-0.189-0.057-0.448-0.087-0.781-0.087
		c-0.666,0-1.269,0.208-1.812,0.619s-1.008,0.942-1.392,1.59c-0.384,0.651-0.68,1.371-0.889,2.166
		c-0.21,0.793-0.315,1.573-0.315,2.338c0,0.735,0.09,1.305,0.272,1.7C195.328,85.468,195.645,85.666,196.091,85.666"/>
	<path clip-path="url(#SVGID_2_)" fill="#FFFFFF" d="M211.178,82.497c-0.189,0.522-0.429,1.049-0.717,1.583
		c-0.29,0.537-0.619,1.023-0.987,1.457c-0.37,0.433-0.774,0.788-1.217,1.063s-0.914,0.413-1.42,0.413
		c-1.505,0-2.259-1.101-2.259-3.301c0-1.025,0.146-2.022,0.436-2.983c0.288-0.963,0.708-1.815,1.258-2.563
		c0.549-0.742,1.215-1.341,1.997-1.791c0.781-0.446,1.67-0.672,2.669-0.672c0.377,0,0.66,0.025,0.846,0.076
		c0.189,0.052,0.429,0.141,0.717,0.272l0.826-4.104l-1.519-0.195V71.21c0.215-0.087,0.455-0.17,0.715-0.25
		c0.261-0.078,0.533-0.15,0.815-0.217c0.28-0.064,0.564-0.127,0.855-0.184c0.29-0.058,0.559-0.103,0.804-0.129l0.455,0.172
		l-2.974,14.935h1.585v0.551c-0.29,0.235-0.637,0.427-1.043,0.572c-0.404,0.149-0.802,0.222-1.193,0.222
		c-0.419,0-0.721-0.091-0.899-0.272c-0.181-0.18-0.272-0.371-0.272-0.574c0-0.261,0.052-0.687,0.153-1.28
		c0.099-0.594,0.252-1.347,0.456-2.258H211.178z M207.748,85.666c0.39,0,0.779-0.185,1.172-0.554
		c0.39-0.368,0.759-0.813,1.105-1.333c0.349-0.519,0.66-1.059,0.934-1.624c0.275-0.561,0.491-1.032,0.652-1.407l0.694-3.701
		c-0.217-0.144-0.416-0.24-0.596-0.292c-0.184-0.049-0.44-0.083-0.772-0.098c-0.695,0.015-1.315,0.229-1.868,0.642
		c-0.549,0.41-1.01,0.936-1.387,1.578c-0.375,0.643-0.663,1.36-0.857,2.155c-0.196,0.793-0.295,1.573-0.295,2.338
		c0,0.735,0.092,1.305,0.272,1.7C206.984,85.468,207.299,85.666,207.748,85.666"/>
	<path clip-path="url(#SVGID_2_)" fill="#FFFFFF" d="M220.619,83.475c0.521-0.869,0.982-1.711,1.388-2.528
		c0.405-0.819,0.753-1.64,1.043-2.463c0-0.159-0.02-0.367-0.055-0.619c-0.036-0.254-0.072-0.512-0.108-0.772
		c-0.037-0.261-0.077-0.502-0.119-0.726c-0.045-0.227-0.081-0.38-0.11-0.467c0.42-0.175,0.851-0.264,1.294-0.272
		c0.439-0.006,0.825,0.083,1.158,0.272c-0.216,0.896-0.512,1.812-0.887,2.744c-0.378,0.936-0.808,1.863-1.293,2.789
		c-0.484,0.928-1.014,1.838-1.584,2.734c-0.573,0.9-1.17,1.76-1.791,2.584l-1.02,0.261l-1.606-9.854l-1.389-0.174v-0.542
		c0.087-0.059,0.216-0.135,0.39-0.23c0.173-0.092,0.365-0.184,0.575-0.271c0.209-0.084,0.427-0.158,0.649-0.217
		c0.226-0.058,0.439-0.087,0.644-0.087c0.316,0,0.544,0.08,0.682,0.239c0.139,0.16,0.229,0.355,0.271,0.585l0.999,7.055l0.106,1.367
		h0.045L220.619,83.475z"/>
	<path clip-path="url(#SVGID_2_)" fill="#FFFFFF" d="M225.806,82.713c0-0.765,0.119-1.565,0.355-2.396
		c0.237-0.833,0.603-1.597,1.092-2.289c0.489-0.696,1.101-1.269,1.836-1.715c0.734-0.449,1.592-0.675,2.57-0.675
		c1.123,0,1.971,0.349,2.539,1.043c0.569,0.693,0.854,1.722,0.854,3.082c0,0.954-0.139,1.869-0.411,2.745
		c-0.274,0.875-0.656,1.647-1.146,2.313c-0.489,0.665-1.079,1.196-1.771,1.593c-0.691,0.399-1.454,0.598-2.289,0.598
		c-1.109,0-1.991-0.357-2.646-1.073C226.132,85.221,225.806,84.147,225.806,82.713 M231.253,76.594
		c-0.708,0.016-1.288,0.244-1.735,0.691c-0.451,0.448-0.804,1-1.065,1.663c-0.261,0.665-0.439,1.376-0.543,2.14
		c-0.101,0.763-0.151,1.462-0.151,2.096c0,0.851,0.188,1.541,0.565,2.073c0.375,0.534,0.882,0.799,1.519,0.799
		c0.506,0,0.96-0.19,1.355-0.571c0.399-0.381,0.74-0.887,1.022-1.512c0.282-0.628,0.498-1.338,0.649-2.129
		c0.154-0.792,0.229-1.592,0.229-2.398c0-0.851-0.149-1.533-0.444-2.053C232.356,76.873,231.889,76.609,231.253,76.594"/>
	<path clip-path="url(#SVGID_2_)" fill="#FFFFFF" d="M244.256,84.82c-0.161,0.273-0.363,0.543-0.608,0.805
		c-0.246,0.258-0.538,0.492-0.87,0.703c-0.333,0.21-0.704,0.378-1.117,0.5s-0.865,0.184-1.355,0.184c-1.071,0-1.919-0.338-2.54-1.02
		c-0.623-0.681-0.934-1.606-0.934-2.777c0-1.043,0.166-2.023,0.498-2.943c0.333-0.918,0.784-1.722,1.357-2.408
		s1.245-1.229,2.018-1.628c0.776-0.397,1.604-0.598,2.487-0.598c0.548,0,0.998,0.045,1.345,0.134
		c0.349,0.089,0.609,0.214,0.781,0.377c0.014,0.163,0.003,0.344-0.033,0.541c-0.035,0.196-0.092,0.389-0.174,0.576
		c-0.078,0.189-0.179,0.363-0.302,0.522c-0.123,0.158-0.25,0.266-0.379,0.323l-1.479-1.518c-0.492,0.015-0.979,0.165-1.465,0.454
		c-0.485,0.291-0.919,0.702-1.301,1.233c-0.384,0.534-0.696,1.182-0.936,1.939c-0.236,0.757-0.349,1.614-0.335,2.565
		c-0.014,0.995,0.186,1.725,0.597,2.187c0.413,0.462,0.973,0.694,1.682,0.694c0.304,0,0.59-0.042,0.857-0.129
		c0.269-0.088,0.518-0.197,0.751-0.327c0.229-0.129,0.439-0.268,0.629-0.413c0.186-0.146,0.354-0.274,0.498-0.391L244.256,84.82z"/>
	<path clip-path="url(#SVGID_2_)" fill="#FFFFFF" d="M252.785,82.497c-0.189,0.522-0.422,1.049-0.706,1.583
		c-0.283,0.537-0.607,1.023-0.976,1.457c-0.368,0.433-0.777,0.788-1.228,1.063c-0.449,0.274-0.926,0.413-1.432,0.413
		c-1.507,0-2.259-1.093-2.259-3.277c0-1.013,0.146-2.001,0.436-2.964c0.29-0.961,0.71-1.82,1.258-2.573
		c0.549-0.75,1.219-1.355,2.008-1.812c0.788-0.455,1.684-0.684,2.682-0.684c0.359,0,0.65,0.032,0.866,0.099
		c0.22,0.064,0.48,0.162,0.782,0.293c0.579-0.305,1.188-0.456,1.824-0.456l-1.953,9.898h1.583v0.551
		c-0.288,0.235-0.635,0.427-1.041,0.572c-0.406,0.149-0.802,0.222-1.195,0.222c-0.42,0-0.719-0.091-0.897-0.272
		c-0.184-0.18-0.272-0.371-0.272-0.574c0-0.261,0.05-0.687,0.151-1.28c0.101-0.594,0.254-1.347,0.456-2.258H252.785z
		 M249.355,85.666c0.392,0,0.781-0.185,1.172-0.554c0.392-0.368,0.761-0.813,1.107-1.333c0.347-0.519,0.658-1.059,0.934-1.624
		c0.272-0.561,0.491-1.032,0.65-1.407l0.696-3.701c-0.205-0.144-0.399-0.242-0.587-0.303c-0.19-0.057-0.448-0.087-0.781-0.087
		c-0.666,0-1.269,0.208-1.812,0.619s-1.008,0.942-1.392,1.59c-0.384,0.651-0.68,1.371-0.89,2.166
		c-0.209,0.793-0.314,1.573-0.314,2.338c0,0.735,0.089,1.305,0.272,1.7C248.592,85.468,248.908,85.666,249.355,85.666"/>
	<path clip-path="url(#SVGID_2_)" fill="#FFFFFF" d="M258.037,76.443c0.288-0.163,0.599-0.313,0.923-0.446
		c0.325-0.137,0.647-0.24,0.966-0.314l0.347-1.65c0.203-0.159,0.438-0.3,0.704-0.423c0.27-0.123,0.547-0.243,0.837-0.357l0.456,0.26
		l-0.521,2.387h2.691c0.028,0.181,0.028,0.369,0,0.564c-0.03,0.197-0.101,0.383-0.218,0.563h-2.69l-1.368,6.265
		c-0.059,0.272-0.101,0.514-0.131,0.724c-0.028,0.208-0.042,0.399-0.042,0.573c0,0.373,0.108,0.646,0.324,0.82
		c0.218,0.172,0.456,0.259,0.717,0.259c0.362,0,0.748-0.069,1.161-0.206c0.411-0.139,0.793-0.294,1.142-0.466l0.236,0.389
		c-0.13,0.188-0.323,0.375-0.585,0.565c-0.261,0.188-0.553,0.361-0.88,0.521c-0.326,0.159-0.666,0.288-1.019,0.39
		c-0.357,0.103-0.692,0.152-1.01,0.152c-0.639,0-1.137-0.143-1.498-0.432c-0.362-0.288-0.543-0.736-0.543-1.339
		c0-0.202,0.018-0.428,0.056-0.671c0.036-0.245,0.083-0.498,0.139-0.757l1.435-6.787h-1.649L258.037,76.443z"/>
	<path clip-path="url(#SVGID_2_)" fill="#FFFFFF" d="M272.688,84.821c-0.129,0.272-0.316,0.543-0.563,0.803
		c-0.246,0.258-0.536,0.493-0.869,0.703s-0.708,0.378-1.128,0.5c-0.419,0.123-0.869,0.185-1.347,0.185
		c-1.201,0-2.124-0.343-2.768-1.031c-0.645-0.688-0.964-1.64-0.964-2.854c0-1.028,0.143-1.997,0.432-2.908
		c0.29-0.912,0.695-1.709,1.216-2.39c0.522-0.677,1.153-1.214,1.9-1.604c0.744-0.392,1.573-0.587,2.484-0.587
		c0.694,0,1.293,0.179,1.791,0.532c0.501,0.354,0.748,0.88,0.748,1.572c0,1.029-0.509,1.838-1.53,2.432
		c-1.021,0.594-2.664,0.979-4.938,1.151c-0.057,0.246-0.098,0.486-0.117,0.716c-0.023,0.232-0.034,0.456-0.034,0.672
		c0,0.869,0.22,1.579,0.663,2.129c0.44,0.549,1.088,0.824,1.94,0.824c0.277,0,0.547-0.042,0.815-0.129
		c0.266-0.087,0.521-0.197,0.759-0.327c0.239-0.129,0.456-0.266,0.653-0.413c0.193-0.144,0.363-0.272,0.508-0.39L272.688,84.821z
		 M270.41,76.594c-0.623,0.014-1.202,0.304-1.736,0.869c-0.536,0.564-0.992,1.534-1.368,2.906c1.404-0.043,2.496-0.282,3.278-0.718
		c0.779-0.436,1.172-1.041,1.172-1.813c0-0.301-0.091-0.579-0.271-0.837C271.303,76.744,270.943,76.607,270.41,76.594"/>
	<path clip-path="url(#SVGID_2_)" fill="#FFFFFF" d="M282.107,77.026h-1.585v-0.583c0.29-0.163,0.599-0.31,0.925-0.437
		c0.323-0.127,0.632-0.229,0.922-0.303l0.152-0.762c0.188-0.896,0.442-1.639,0.771-2.224c0.326-0.587,0.705-1.048,1.139-1.39
		c0.434-0.339,0.912-0.574,1.432-0.703c0.521-0.132,1.078-0.196,1.673-0.196c0.246,0,0.538,0.028,0.88,0.085
		c0.339,0.061,0.625,0.147,0.855,0.261c-0.029,0.319-0.104,0.648-0.227,0.987c-0.123,0.342-0.331,0.634-0.619,0.88l-1.648-1.345
		c-0.262,0.071-0.5,0.152-0.718,0.239s-0.424,0.25-0.618,0.486c-0.194,0.239-0.38,0.577-0.554,1.01
		c-0.174,0.434-0.341,1.027-0.5,1.78l-0.216,1.085h2.408c0.072,0.377,0,0.753-0.216,1.128h-2.41l-1.39,8.811
		c-0.158,1.022-0.426,1.873-0.804,2.551c-0.375,0.679-0.777,1.229-1.203,1.646c-0.428,0.418-0.844,0.729-1.249,0.931
		c-0.403,0.201-0.717,0.333-0.932,0.39l-0.196-0.477c0.172-0.087,0.382-0.242,0.628-0.464c0.248-0.226,0.489-0.524,0.73-0.9
		c0.237-0.375,0.462-0.833,0.672-1.373c0.209-0.541,0.373-1.172,0.487-1.892L282.107,77.026z"/>
	<path clip-path="url(#SVGID_2_)" fill="#FFFFFF" d="M286.645,82.713c0-0.765,0.119-1.565,0.355-2.396
		c0.238-0.833,0.603-1.597,1.092-2.289c0.489-0.696,1.101-1.269,1.837-1.715c0.734-0.449,1.592-0.675,2.569-0.675
		c1.124,0,1.971,0.349,2.54,1.043c0.569,0.693,0.853,1.722,0.853,3.082c0,0.954-0.139,1.869-0.411,2.745
		c-0.274,0.875-0.655,1.647-1.146,2.313c-0.488,0.665-1.079,1.196-1.771,1.593c-0.692,0.399-1.454,0.598-2.29,0.598
		c-1.109,0-1.991-0.357-2.646-1.073C286.972,85.221,286.645,84.147,286.645,82.713 M292.092,76.594
		c-0.707,0.016-1.288,0.244-1.735,0.691c-0.45,0.448-0.804,1-1.065,1.663c-0.261,0.665-0.439,1.376-0.542,2.14
		c-0.101,0.763-0.152,1.462-0.152,2.096c0,0.851,0.188,1.541,0.565,2.073c0.375,0.534,0.882,0.799,1.519,0.799
		c0.507,0,0.96-0.19,1.355-0.571c0.399-0.381,0.741-0.887,1.023-1.512c0.28-0.628,0.498-1.338,0.649-2.129
		c0.153-0.792,0.228-1.592,0.228-2.398c0-0.851-0.149-1.533-0.444-2.053C293.196,76.873,292.729,76.609,292.092,76.594"/>
	<path clip-path="url(#SVGID_2_)" fill="#FFFFFF" d="M303.422,77.224c-0.375,0.145-0.8,0.51-1.271,1.097
		c-0.47,0.585-0.885,1.378-1.248,2.376l-1.301,6.055h-1.868l2.02-9.593l-1.323-0.195V76.42c0.491-0.231,1.005-0.409,1.541-0.532
		s1.019-0.205,1.454-0.25l0.434,0.262l-0.608,2.887h0.087c0.42-0.957,0.934-1.719,1.541-2.29c0.608-0.572,1.26-0.858,1.954-0.858
		c0.188,0,0.375,0.021,0.564,0.056c0.188,0.035,0.369,0.104,0.543,0.206c0,0.129-0.022,0.301-0.066,0.511
		c-0.043,0.21-0.104,0.421-0.184,0.64c-0.079,0.216-0.165,0.422-0.261,0.618c-0.095,0.196-0.191,0.344-0.293,0.444L303.422,77.224z"
		/>
	<path clip-path="url(#SVGID_2_)" fill="#FFFFFF" d="M317.963,82.497c-0.189,0.522-0.422,1.049-0.705,1.583
		c-0.283,0.537-0.607,1.023-0.977,1.457c-0.368,0.433-0.776,0.788-1.228,1.063c-0.449,0.274-0.925,0.413-1.432,0.413
		c-1.505,0-2.259-1.093-2.259-3.277c0-1.013,0.146-2.001,0.436-2.964c0.291-0.961,0.711-1.82,1.259-2.573
		c0.549-0.75,1.219-1.355,2.007-1.812c0.789-0.455,1.685-0.684,2.683-0.684c0.359,0,0.649,0.032,0.866,0.099
		c0.219,0.064,0.479,0.162,0.782,0.293c0.578-0.305,1.188-0.456,1.823-0.456l-1.953,9.898h1.584v0.551
		c-0.288,0.235-0.635,0.427-1.041,0.572c-0.407,0.149-0.803,0.222-1.195,0.222c-0.42,0-0.719-0.091-0.898-0.272
		c-0.182-0.18-0.271-0.371-0.271-0.574c0-0.261,0.05-0.687,0.151-1.28c0.101-0.594,0.253-1.347,0.455-2.258H317.963z
		 M314.533,85.666c0.393,0,0.781-0.185,1.173-0.554c0.391-0.368,0.761-0.813,1.107-1.333c0.347-0.519,0.657-1.059,0.934-1.624
		c0.272-0.561,0.491-1.032,0.649-1.407l0.696-3.701c-0.204-0.144-0.399-0.242-0.587-0.303c-0.189-0.057-0.448-0.087-0.781-0.087
		c-0.665,0-1.269,0.208-1.812,0.619c-0.542,0.411-1.008,0.942-1.391,1.59c-0.384,0.651-0.68,1.371-0.89,2.166
		c-0.21,0.793-0.314,1.573-0.314,2.338c0,0.735,0.09,1.305,0.272,1.7C313.77,85.468,314.086,85.666,314.533,85.666"/>
	<path clip-path="url(#SVGID_2_)" fill="#FFFFFF" d="M325.82,71.947l-1.541-0.194v-0.542c0.201-0.087,0.438-0.174,0.705-0.262
		c0.269-0.087,0.551-0.17,0.848-0.248c0.296-0.08,0.589-0.146,0.879-0.196c0.289-0.049,0.549-0.075,0.78-0.075l0.434,0.238
		l-2.995,14.87h1.583v0.563c-0.288,0.231-0.639,0.42-1.05,0.564c-0.413,0.144-0.815,0.217-1.206,0.217
		c-0.42,0-0.729-0.094-0.922-0.283c-0.196-0.186-0.293-0.405-0.293-0.65c0-0.289,0.021-0.569,0.064-0.846
		c0.043-0.276,0.101-0.579,0.175-0.912L325.82,71.947z"/>
	<path clip-path="url(#SVGID_2_)" fill="#FFFFFF" d="M331.831,71.947l-1.541-0.194v-0.542c0.202-0.087,0.438-0.174,0.706-0.262
		c0.269-0.087,0.55-0.17,0.847-0.248c0.297-0.08,0.59-0.146,0.88-0.196c0.288-0.049,0.548-0.075,0.78-0.075l0.434,0.238
		l-2.995,14.87h1.583v0.563c-0.288,0.231-0.639,0.42-1.05,0.564c-0.414,0.144-0.815,0.217-1.206,0.217
		c-0.42,0-0.729-0.094-0.923-0.283c-0.195-0.186-0.292-0.405-0.292-0.65c0-0.289,0.021-0.569,0.064-0.846
		c0.042-0.276,0.101-0.579,0.175-0.912L331.831,71.947z"/>
	<path clip-path="url(#SVGID_2_)" fill="#FFFFFF" d="M86.5,38.558v2.441c1.289,0.505,2.524,0.94,3.705,1.305
		c1.178,0.365,2.357,0.632,3.535,0.8l-7.746,33.592L84.06,87.81h-0.169l-2.442-10.944L69.241,38.558h-2.862L55.013,76.865
		l-2.947,11.112h-0.169l-1.852-10.944l-6.383-25.986L58.551,0H56.84L42.858,47.933l-0.087,0.3c-0.651-1.022-1.404-1.929-2.274-2.705
		c-1.293-1.152-2.767-2.065-4.421-2.738c-1.656-0.672-3.325-1.149-5.01-1.43v-0.337c1.908-0.449,3.565-1.15,4.967-2.106
		c1.404-0.954,2.57-2.062,3.494-3.324c0.927-1.264,1.614-2.624,2.063-4.084c0.449-1.459,0.675-2.919,0.675-4.378
		c0-2.919-0.589-5.289-1.768-7.113c-1.18-1.824-2.71-3.243-4.589-4.254c-1.883-1.009-3.985-1.695-6.315-2.061
		c-2.329-0.366-4.616-0.547-6.862-0.547c-1.571,0-2.975,0.029-4.209,0.084c-1.235,0.056-2.385,0.113-3.451,0.168
		c-1.067,0.056-2.093,0.113-3.073,0.168c-0.982,0.056-2.007,0.086-3.073,0.086H0v2.44c1.124,0.45,2.275,0.856,3.454,1.222
		c1.178,0.364,2.327,0.659,3.451,0.883v49.925C4.547,68.414,2.246,69.088,0,70.154v2.439h8.084c2.3,0,4.687,0.084,7.156,0.252
		c2.468,0.17,4.687,0.254,6.652,0.254c2.804,0,5.583-0.323,8.334-0.968c2.306-0.542,4.394-1.366,6.287-2.44l-8.404,28.811h1.711
		l9.471-32.469l8.733,32.469l5.137-1.01l13.303-44.79l13.554,45.8l5.22-1.01l14.06-54.388c2.132-0.56,4.153-1.263,6.061-2.105
		v-2.441H86.5z M14.482,17.87c0.785-0.112,1.795-0.196,3.03-0.252c1.233-0.057,2.721-0.084,4.462-0.084
		c3.705,0,6.665,0.925,8.883,2.778c2.216,1.852,3.325,4.63,3.325,8.335c0,2.694-0.829,5.038-2.484,7.03
		c-1.656,1.991-3.775,3.438-6.356,4.335c-0.842,0.113-1.924,0.211-3.241,0.295c-1.319,0.084-2.456,0.126-3.411,0.126h-4.208V17.87z
		 M32.709,65.227c-1.263,1.096-2.778,1.951-4.547,2.568c-1.767,0.619-3.662,0.927-5.682,0.927c-2.358,0-4.084-0.056-5.178-0.168
		c-1.095-0.112-2.035-0.28-2.82-0.506V44.812h6.314c2.076,0,4.083,0.168,6.018,0.505c1.938,0.336,3.649,0.94,5.137,1.81
		c1.486,0.871,2.666,2.049,3.536,3.536c0.87,1.488,1.305,3.354,1.305,5.599c0,1.797-0.366,3.465-1.095,5.009
		C34.968,62.816,33.972,64.133,32.709,65.227"/>
	<polygon clip-path="url(#SVGID_2_)" fill="#C22032" points="45.881,54.255 61.707,0 59.996,0 45.1,51.07 	"/>
	<polygon clip-path="url(#SVGID_2_)" fill="#C22032" points="39.234,71.18 31.265,98.502 32.976,98.502 40.055,74.232 	"/>
</g>
</svg>
