<?xml version="1.0" encoding="utf-8"?>
<!-- Generator: Adobe Illustrator 16.0.0, SVG Export Plug-In . SVG Version: 6.00 Build 0)  -->
<!DOCTYPE svg PUBLIC "-//W3C//DTD SVG 1.1//EN" "http://www.w3.org/Graphics/SVG/1.1/DTD/svg11.dtd">
<svg version="1.1" id="Layer_1" xmlns="http://www.w3.org/2000/svg" xmlns:xlink="http://www.w3.org/1999/xlink" x="0px" y="0px"
	 width="28.224px" height="27.317px" viewBox="0 0 28.224 27.317" enable-background="new 0 0 28.224 27.317" xml:space="preserve">
<path fill="#FFFFFF" d="M0.946,25.424h10.408v0.947H0.946V25.424z M1.893,22.586h8.516v1.894H1.893V22.586z M0.946,21.64v2.84H0
	v2.838h12.301v-2.838h-0.947v-2.84H0.946z"/>
<path fill="#FFFFFF" d="M4.137,12.043l1.339-1.338l4.015,4.014l-1.339,1.338L4.137,12.043z M12.835,11.375l1.339-1.34l12.712,12.714
	l-1.338,1.339L12.835,11.375z M6.815,10.706l6.69-6.691l2.676,2.676l-6.69,6.691L6.815,10.706z M13.505,2.677l1.338-1.339
	l4.015,4.015L17.52,6.691L13.505,2.677z M14.843,0l-2.677,2.677l0.669,0.669l-6.691,6.689L5.476,9.366l-2.677,2.678l5.353,5.352
	l2.676-2.676l-0.669-0.669l2.007-2.007l13.382,13.381l2.676-2.676L14.843,9.366l2.008-2.007l0.669,0.67l2.675-2.676L14.843,0z"/>
</svg>
